<?xml version="1.0" standalone="no"?><!DOCTYPE svg PUBLIC "-//W3C//DTD SVG 1.1//EN" "http://www.w3.org/Graphics/SVG/1.1/DTD/svg11.dtd"><svg t="1565137834470" class="icon" viewBox="0 0 1024 1024" version="1.1" xmlns="http://www.w3.org/2000/svg" p-id="529" width="32" height="32" xmlns:xlink="http://www.w3.org/1999/xlink"><defs><style type="text/css"></style></defs><path d="M480 416a32 32 0 0 1 64 0v528a32 32 0 0 1-64 0V416z m-104.8-185.856a32 32 0 0 1 45.248 45.248A152.992 152.992 0 0 0 375.456 384c0 41.312 16.352 80 44.992 108.608a32 32 0 0 1-45.248 45.248A216.96 216.96 0 0 1 311.456 384a216.96 216.96 0 0 1 63.744-153.856zM287.712 142.656a32 32 0 0 1 45.248 45.248A276.32 276.32 0 0 0 251.744 384c0 74.56 29.536 144.416 81.216 196.096a32 32 0 1 1-45.248 45.248A340.288 340.288 0 0 1 187.744 384c0-91.744 36.384-177.792 99.968-241.344zM200.224 55.136A32 32 0 0 1 245.44 100.416 399.648 399.648 0 0 0 128 384c0 107.84 42.72 208.832 117.44 283.584a32 32 0 0 1-45.216 45.28A463.616 463.616 0 0 1 64 384C64 259.008 113.6 141.76 200.224 55.136z m448.576 175.008A216.96 216.96 0 0 1 712.544 384a216.96 216.96 0 0 1-63.744 153.856 32 32 0 0 1-45.248-45.248A152.992 152.992 0 0 0 648.544 384c0-41.312-16.352-80-44.992-108.608a32 32 0 1 1 45.248-45.248z m87.488-87.488A340.288 340.288 0 0 1 836.256 384c0 91.744-36.384 177.792-99.968 241.344a32 32 0 0 1-45.248-45.248A276.32 276.32 0 0 0 772.256 384c0-74.56-29.536-144.416-81.216-196.096a32 32 0 1 1 45.248-45.248z m87.488-87.52A463.616 463.616 0 0 1 960 384c0 124.992-49.6 242.24-136.224 328.864a32 32 0 0 1-45.248-45.28A399.648 399.648 0 0 0 896 384c0-107.84-42.72-208.832-117.44-283.584a32 32 0 0 1 45.216-45.28z" fill="#000000" p-id="530"></path><path d="M512 384m-64 0a64 64 0 1 0 128 0 64 64 0 1 0-128 0Z" fill="#000000" p-id="531"></path></svg>